<svg xmlns="http://www.w3.org/2000/svg" version="1.1" xmlns:xlink="http://www.w3.org/1999/xlink" xmlns:svgjs="http://svgjs.dev/svgjs" width="2000" height="2250" viewBox="0 0 2000 2250"><g transform="matrix(1,0,0,1,3.410605131648481e-13,0)"><svg viewBox="0 0 320 360" data-background-color="#ffffff" preserveAspectRatio="xMidYMid meet" height="2250" width="2000" xmlns="http://www.w3.org/2000/svg" xmlns:xlink="http://www.w3.org/1999/xlink"><g id="tight-bounds" transform="matrix(1,0,0,1,0,0)"><svg viewBox="0 0 320 360" height="360" width="320"><g><svg></svg></g><g><svg viewBox="0 0 320 360" height="360" width="320"><g><path xmlns="http://www.w3.org/2000/svg" d="M20.961 227.22l3.726 4.658-1.863-6.056c-0.466-2.795-3.726 0.466-1.863 1.398M25.153 224.425c1.397 2.329 2.795 4.658 2.795 6.987 0 3.261 2.795 4.658 5.123 5.589-3.261-3.726-5.124-13.974-7.918-12.576M204.017 26.929c7.918 0 15.371-0.932 23.756 0.931 20.495 5.124 37.729 15.371 49.374 29.811l32.606 52.169c1.397 13.042 4.192 27.482 3.726 43.319 3.261 0 2.795-4.658 6.521-5.59-3.726 9.316-5.59 20.961-6.521 34.469-2.329-7.453 0-18.632 0.466-24.687-3.261 5.124-5.124 1.397-5.124-0.932 0.466-3.726-1.397-3.261-2.795-4.658-5.124-4.658-8.384-9.782-12.11-17.7 2.329-6.055 2.795-14.905-4.658-19.563-2.329-1.397-5.124-3.726-6.521-7.453-1.863-5.124-5.124-11.179-4.193-19.097 0.466-2.329-6.987 5.124-11.179 1.863-18.166-12.576-36.332-27.016-58.224-39.127-11.645 0-20.029-4.192-24.221-9.316-3.726-4.658-0.932-10.713 4.658-11.179 3.261 0 6.987-0.932 9.782 0.932 0.466-1.863 2.329-4.192 4.657-4.192M157.904 16.215l0.932 0.466c4.658 0.932 6.987 7.453 12.11 5.124 0 3.261 0.466 6.521-0.466 8.85-1.397 3.726-5.59 3.726-8.85 3.726-31.208-1.863-49.374 11.179-68.471 22.358-5.124 3.261-10.713 5.59-14.906 9.782-20.029 18.632-41.921 35.866-47.045 70.335l-4.192 38.195c-0.466 4.192-5.124 8.384-4.192 13.508l3.26 22.824c-3.261-3.261-5.124 0.932-4.192 2.795 0.466 1.397 2.329 6.055 5.124 1.863 3.726 6.987 7.453 20.495 12.576 26.55 15.837 18.632 36.332 35.4 53.101 52.169 4.192-0.932 7.453-0.932 8.384-3.727 1.397 2.795-1.397 5.59-3.726 6.056 7.453 4.658 15.837 8.85 27.016 9.781 14.44 0.932 27.948 3.261 40.524 6.522 6.521-1.863 13.042-2.795 20.029-3.261 2.329 0 3.726-3.726 6.521-4.658l0.466-4.658c2.795 4.192 2.329-1.397 0.466-4.192 3.261 2.795 4.192 5.124 5.589 6.987 0-1.397 3.726-6.521 3.727-0.466l0.931-6.055c1.397-0.932 1.863 5.124 3.261 0.931 1.397-4.192 4.192-0.932 6.987-2.329-0.932 1.863-0.466 5.59 2.794 3.261l3.727-3.261c2.329 5.59 6.055 3.261 7.918 2.329 20.495-13.042 40.99-28.413 60.553-43.784l-0.466 6.055 2.329-7.453c2.329 2.329 4.192 0.466 5.124-0.931 2.795-4.658 6.521-9.316 12.577-13.508-7.453 20.029-16.303 35.866-27.482 48.908l-4.658 5.59c0 3.261-0.932 7.453-4.658 7.918-1.863 0.466-5.59-0.932-8.384 1.863-1.397 1.863 3.261 5.59-0.466 2.795-3.261-2.329-6.521 0-10.248 0.932-2.795 0.932 1.863 3.726 2.795 5.589 0.932 1.863 1.863 3.726 1.398 6.056l-5.124-5.59c-6.055 3.261-9.782 9.316-14.906 13.974-2.329 1.863-1.397 5.124-1.397 7.918-3.261 0-6.987-0.932-8.85 0.932-1.397 1.863-0.932 4.658-0.932 7.453-4.658-0.466-5.124-7.453-9.315-6.056-4.192 0.932-8.85 1.397-12.577 3.727 2.795 5.59-4.658 2.329-3.726 3.26-6.987-4.192-13.042-7.453-20.495-4.658-15.837-5.124-35.4-2.795-49.84-0.931 0-2.329 0.466-4.658-0.466-5.124-0.932 2.329-3.726 1.397-3.26 1.397-8.85-6.055-17.7-9.782-27.016-14.905-8.384 0.932-16.303-3.261-18.632-5.59-6.521-6.055-13.974-2.795-20.029-4.192-13.042-3.261-17.7-16.769-19.098-26.084-0.932-4.658-4.658-6.521-6.055-6.056-6.055-19.563-15.371-37.263-22.824-55.429-1.863-4.658-1.397-9.316-1.397-14.44 2.329 0.932 4.658 0.466 4.192-2.794-2.329-15.371-7.918-27.016-13.974-38.195 3.261-15.837 3.726-34.469 11.179-48.443 6.521-12.576 18.632-19.098 27.016-29.811 2.795-3.726 2.795-8.85 5.59-12.11 9.316-9.316 18.632-19.098 28.879-27.482 4.658-3.726 10.247 0 17.234-1.397 2.329-8.384 11.645-15.837 20.495-13.508 3.726 0.932 11.179-8.85 13.508-9.782 3.726-1.397 1.863 3.726 1.863 6.987 8.85-6.987 20.961-10.713 32.14-14.906" fill="#0080ff" fill-rule="nonzero" stroke="none" stroke-width="1" stroke-linecap="butt" stroke-linejoin="miter" stroke-miterlimit="10" stroke-dasharray="" stroke-dashoffset="0" font-family="none" font-weight="none" font-size="none" text-anchor="none" style="mix-blend-mode: normal" data-fill-palette-color="tertiary"></path></g><g transform="matrix(1,0,0,1,84.23939836737566,90)"><svg viewBox="0 0 151.5212032652487 180" height="180" width="151.5212032652487"><g><svg viewBox="0 0 151.5212032652487 180" height="180" width="151.5212032652487"><g><svg viewBox="0 0 192 228.08688985593818" height="180" width="151.5212032652487"><g transform="matrix(1,0,0,1,0,152.59404328465058)"><svg viewBox="0 0 192 75.49284657128761" height="75.49284657128761" width="192"><g><svg viewBox="0 0 192 75.49284657128761" height="75.49284657128761" width="192"><g><svg viewBox="0 0 192 75.49284657128761" height="75.49284657128761" width="192"><g transform="matrix(1,0,0,1,0,0)"><svg width="192" viewBox="0.49000000953674316 -37.5 98.95999908447266 38.91999816894531" height="75.49284657128761" data-palette-color="#0080ff"><path d="M1.37-2.78L1.37-2.78 2.05-5.52Q6.3-3.22 10.4-3.22L10.4-3.22Q13.33-3.22 15.41-4.42 17.48-5.62 17.48-8.3L17.48-8.3Q17.48-10.69 15.72-12.67 13.96-14.65 11.47-16.16 8.98-17.68 6.49-19.26 4-20.85 2.25-23.17 0.49-25.49 0.49-28.32L0.49-28.32Q0.49-31.79 2.98-34.64 5.47-37.5 8.98-37.5L8.98-37.5Q11.67-37.5 14.97-36.43 18.26-35.35 20.51-34.28L20.51-34.28 19.92-32.32Q14.36-34.23 10.55-34.23L10.55-34.23Q8.2-34.23 6.54-32.71 4.88-31.2 4.88-28.81L4.88-28.81Q4.88-27 5.81-25.54 6.74-24.07 8.23-23 9.72-21.92 11.55-20.9 13.38-19.87 15.19-18.7 16.99-17.53 18.48-16.16 19.97-14.79 20.9-12.72 21.83-10.64 21.83-8.06L21.83-8.06Q21.83-4.39 19.48-2.08 17.14 0.24 13.38 0.24L13.38 0.24Q10.16 0.24 6.52-0.66 2.88-1.56 1.37-2.78ZM24.31-10.4L24.31-10.4Q24.31-12.35 24.73-14.75 25.14-17.14 25.97-19.78 26.8-22.41 28.46-24.17 30.12-25.93 32.32-25.93L32.32-25.93Q37.01-25.93 39.84-21.7 42.67-17.48 42.67-12.3L42.67-12.3Q42.67-10.11 42.21-7.93 41.75-5.76 40.77-3.66 39.79-1.56 37.96-0.17 36.13 1.22 33.69 1.42L33.69 1.42Q29.2 0.83 26.76-2.42 24.31-5.66 24.31-10.4ZM32.61-23.39L32.61-23.39Q30.91-23.19 29.73-20.26 28.56-17.33 28.22-14.58 27.88-11.82 27.88-9.72L27.88-9.72Q27.88-6.98 29.56-4.66 31.25-2.34 33.35-2.34L33.35-2.34Q34.86-2.34 36.08-3.52 37.3-4.69 38.01-6.42 38.72-8.15 39.08-9.91 39.45-11.67 39.45-13.04L39.45-13.04Q39.45-17.04 37.64-20.02 35.84-23 32.61-23.39ZM63.08-24.22L63.08-24.22 62.84-22.12Q60.79-22.41 59.32-22.41L59.32-22.41Q55.95-22.41 53.75-20.39 51.56-18.36 50.75-15.6 49.95-12.84 49.95-9.47L49.95-9.47Q49.95-7.91 50.14-6.69 50.34-5.47 50.85-4.3 51.36-3.13 52.46-2.47 53.56-1.81 55.17-1.81L55.17-1.81Q57.32-1.81 60.64-2.64L60.64-2.64Q61.66-3.03 62.25-3.03L62.25-3.03Q63.42-3.03 63.67-0.29L63.67-0.29Q59.37 1.07 55.71 1.07L55.71 1.07Q50.39 1.07 48.51-1.54 46.63-4.15 46.63-10.01L46.63-10.01Q46.63-13.43 47.09-15.99 47.55-18.55 48.73-20.78 49.9-23 52.12-24.17 54.34-25.34 57.56-25.34L57.56-25.34Q61.18-25.34 63.08-24.22ZM67.23-25.1L67.23-25.1 69.47-24.61Q69.87-20.61 70.16-12.04 70.45-3.47 70.55-1.42L70.55-1.42Q70.11 0.1 68.84 0.1L68.84 0.1Q67.96 0.1 67.16-0.61 66.35-1.32 66.15-2.34L66.15-2.34Q66.25-4.35 66.55-12.77 66.84-21.19 67.23-25.1ZM67.91-33.84L67.91-33.84Q69.23-33.84 70.11-32.69 70.99-31.54 70.99-30.08L70.99-30.08Q70.99-29 70.48-28.34 69.96-27.69 69.08-27.69L69.08-27.69Q67.72-27.69 66.94-28.81 66.15-29.93 66.15-31.45L66.15-31.45Q66.15-32.52 66.62-33.18 67.08-33.84 67.91-33.84ZM76.75-21.09L76.75-21.09 75.77-23.58Q77.04-24.85 78.99-25.61 80.95-26.37 82.85-26.37L82.85-26.37Q91.1-26.37 91.1-12.11L91.1-12.11Q91.1-10.16 90.88-6.35 90.66-2.54 90.66-0.63L90.66-0.63Q90.27 0.88 89.15 0.88L89.15 0.88Q88.27 0.88 87.54 0 86.81-0.88 86.81-1.95L86.81-1.95Q86.81-2.29 86.86-2.44L86.86-2.44Q83.83 0.49 80.41 0.49L80.41 0.49Q77.82 0.49 75.89-1.39 73.96-3.27 73.96-5.96L73.96-5.96Q73.96-10.5 77.5-14.16 81.04-17.82 85.54-17.82L85.54-17.82Q85.73-17.82 85.93-17.8 86.12-17.77 86.39-17.72 86.66-17.68 86.81-17.68L86.81-17.68Q86.42-23.39 82.27-23.39L82.27-23.39Q79.82-23.39 76.75-21.09ZM86.95-5.81L86.95-5.81Q87.05-9.23 87.05-10.99L87.05-10.99Q87.05-12.45 86.95-15.09L86.95-15.09 86.56-15.09Q83.1-15.04 80.24-12.5 77.38-9.96 77.38-6.35L77.38-6.35Q77.38-4.79 78.33-3.86 79.29-2.93 80.65-2.93L80.65-2.93Q82.8-2.93 86.95-5.81ZM95.06-2.34L96.13-33.5 98.38-33.01 99.45-1.42Q99.01 0.1 97.74 0.1L97.74 0.1Q96.86 0.1 96.06-0.61 95.25-1.32 95.06-2.34L95.06-2.34Z" opacity="1" transform="matrix(1,0,0,1,0,0)" fill="#0080ff" class="undefined-text-0" data-fill-palette-color="primary" id="text-0"></path></svg></g></svg></g></svg></g></svg></g><g transform="matrix(1,0,0,1,7.007999999999996,0)"><svg viewBox="0 0 177.984 141.577825141582" height="141.577825141582" width="177.984"><g><svg xmlns="http://www.w3.org/2000/svg" xmlns:xlink="http://www.w3.org/1999/xlink" version="1.1" x="0" y="0" viewBox="14.265998840332031 21.575000762939453 71.47000122070312 56.85099411010742" enable-background="new 0 0 100 100" xml:space="preserve" height="141.577825141582" width="177.984" class="icon-icon-0" data-fill-palette-color="accent" id="icon-0"><g fill="#0080ff" data-fill-palette-color="accent"><path d="M50 21.575c-4.924 0-8.92 3.973-8.92 8.841v0.028c0.028 3.273 0.76 6.91 2.223 9.82 1.436 2.91 3.715 5.176 6.697 5.176 2.982 0 5.261-2.266 6.697-5.176 1.463-2.91 2.193-6.546 2.25-9.82v-0.028C58.947 25.548 54.924 21.575 50 21.575L50 21.575zM50 23.142c4.08 0 7.343 3.246 7.343 7.274-0.027 3.049-0.787 6.519-2.082 9.148s-3.066 4.28-5.261 4.28c-2.195 0-3.968-1.65-5.262-4.28-1.295-2.63-2.055-6.099-2.082-9.148C42.657 26.387 45.92 23.142 50 23.142L50 23.142zM30.473 26.611c-4.192 0-7.597 3.385-7.597 7.526 0.028 2.77 0.675 5.819 1.885 8.281s3.151 4.42 5.712 4.42 4.474-1.958 5.712-4.42c1.21-2.462 1.856-5.511 1.885-8.281C38.07 29.996 34.637 26.611 30.473 26.611L30.473 26.611zM69.527 26.611c-4.164 0-7.598 3.385-7.598 7.526 0.029 2.77 0.676 5.819 1.885 8.281 1.238 2.462 3.152 4.42 5.713 4.42s4.502-1.958 5.711-4.42c1.211-2.462 1.857-5.511 1.887-8.281C77.125 29.996 73.719 26.611 69.527 26.611L69.527 26.611zM30.473 28.178c3.32 0 5.993 2.658 5.993 5.959-0.028 2.518-0.619 5.428-1.716 7.61-1.069 2.154-2.533 3.525-4.277 3.525-1.745 0-3.18-1.371-4.277-3.525-1.069-2.182-1.688-5.092-1.745-7.61C24.452 30.835 27.153 28.178 30.473 28.178L30.473 28.178zM69.527 28.178c3.32 0 6.021 2.658 6.021 5.959-0.057 2.518-0.676 5.428-1.744 7.61-1.098 2.154-2.533 3.525-4.277 3.525s-3.207-1.371-4.277-3.525c-1.098-2.182-1.688-5.092-1.717-7.61C63.533 30.835 66.207 28.178 69.527 28.178L69.527 28.178zM50 46.727c-4.023 0-7.766 1.399-10.833 3.805-2.505-1.818-5.487-2.881-8.694-2.881-9.004 0-16.207 8.309-16.207 18.409 0 1.119 0.084 2.21 0.253 3.273l0.056 0.336 0.253 0.168c4.193 2.882 9.651 4.616 15.645 4.616 1.041 0 2.026-0.057 3.039-0.168 4.643 2.602 10.327 4.141 16.489 4.141 6.162 0 11.873-1.539 16.515-4.141 0.986 0.084 1.998 0.168 3.012 0.168 5.992 0 11.451-1.734 15.645-4.616l0.252-0.168 0.057-0.336c0.17-1.063 0.254-2.154 0.254-3.273 0-10.1-7.203-18.409-16.207-18.409-3.207 0-6.189 1.063-8.695 2.881C57.766 48.125 54.023 46.727 50 46.727L50 46.727zM50 48.293c9.707 0 17.669 9.008 17.669 20.284 0 1.118-0.113 2.21-0.254 3.272C62.773 74.928 56.697 76.857 50 76.857c-6.697 0-12.774-1.93-17.417-5.035-0.141-1.063-0.253-2.127-0.253-3.245C32.33 57.302 40.293 48.293 50 48.293L50 48.293zM30.473 49.245c2.701 0 5.233 0.839 7.428 2.322-4.389 4.029-7.146 10.184-7.146 17.011 0 1.314 0.084 2.602 0.281 3.86l0.056 0.308 0.113 0.112c-0.253 0-0.479 0.027-0.731 0.027-5.543 0-10.551-1.595-14.435-4.168-0.112-0.867-0.197-1.734-0.197-2.658C15.842 56.687 22.454 49.245 30.473 49.245L30.473 49.245zM69.527 49.245c8.02 0 14.631 7.442 14.631 16.814 0 0.924-0.084 1.791-0.197 2.658-3.883 2.573-8.891 4.168-14.434 4.168-0.225 0-0.479-0.027-0.703-0.027l0.084-0.084 0.057-0.308c0.197-1.26 0.281-2.574 0.281-3.889 0-6.827-2.758-12.981-7.146-17.011C64.293 50.084 66.826 49.245 69.527 49.245L69.527 49.245z" fill="#0080ff" data-fill-palette-color="accent"></path></g></svg></g></svg></g><g></g></svg></g></svg></g></svg></g></svg></g><defs></defs></svg><rect width="320" height="360" fill="none" stroke="none" visibility="hidden"></rect></g></svg></g></svg>